<?xml version="1.0" encoding="utf-8"?>
<!-- Generator: Adobe Illustrator 17.1.0, SVG Export Plug-In . SVG Version: 6.00 Build 0)  -->
<!DOCTYPE svg PUBLIC "-//W3C//DTD SVG 1.1//EN" "http://www.w3.org/Graphics/SVG/1.1/DTD/svg11.dtd">
<svg version="1.1" id="Layer_1" xmlns="http://www.w3.org/2000/svg" xmlns:xlink="http://www.w3.org/1999/xlink" x="0px" y="0px"
	 viewBox="0 0 500 500" enable-background="new 0 0 500 500" xml:space="preserve">
<path fill="#7A7A7A" d="M477.9,218.3l12.7-30.1L487,185l-27.8-24.1l0.2-24.4l31.3-28l-12.3-30.3l-4.8,0.3l-36.7,2.6l-17.1-17.4
	l2.3-41.9L391.8,9l-3.2,3.7l-24.1,27.8l-24.4-0.2L312.1,9l-30.3,12.3l0.4,4.8l2.6,36.7l-17.4,17.2l-42-2.4l-12.7,30.2l3.7,3.2
	l27.8,24.1l-0.2,24.4l-31.3,28l12.3,30.3l4.9-0.3l36.7-2.6l17.2,17.4l-2.3,42l30.1,12.7l3.2-3.6l24.1-27.8l24.4,0.2l28,31.3
	l30.3-12.3l-0.3-4.9l-2.6-36.7L436,216L477.9,218.3z M325.6,209.7c-34.1-14.4-50-53.7-35.6-87.7c14.4-34.1,53.6-50.1,87.7-35.7
	c34.1,14.4,50,53.6,35.6,87.7C399,208.1,359.7,224.1,325.6,209.7"/>
<path fill="#7A7A7A" d="M295,361.1l0-32.7l-4.6-1.5l-35-11.4l-9.3-22.6l18-38L241,231.7l-4.3,2.2l-32.8,16.6l-22.6-9.4l-14.1-39.6
	h-32.7l-1.5,4.6l-11.5,35l-22.5,9.3l-38-18l-23.1,23.1l2.2,4.4l16.6,32.8l-9.3,22.6L7.6,329.5l0,32.7l4.6,1.5l35,11.4l9.3,22.6
	l-18,38l23.1,23.1l4.3-2.2l32.9-16.6l22.5,9.4l14.2,39.6h32.7l1.5-4.6l11.5-35l22.5-9.3l38,18l23.2-23.1l-2.2-4.3l-16.7-32.9
	l9.4-22.5L295,361.1z M151.3,412.2c-37,0-66.9-30-66.9-67c0-37,30-66.9,67-66.9c37,0,66.9,30,66.9,67
	C218.2,382.3,188.3,412.3,151.3,412.2"/>
<path fill="#59B4D9" d="M388.5,163.6c-8.6,20.3-32,29.9-52.4,21.3c-20.3-8.6-29.9-32.1-21.3-52.4c8.6-20.4,32-29.9,52.4-21.3
	C387.6,119.8,397.1,143.2,388.5,163.6"/>
<path fill="#59B4D9" d="M191.3,345.3c0,22.1-17.9,40-40,40c-22.1,0-40-17.9-40-40c0-22.1,17.9-40,40-40
	C173.4,305.3,191.3,323.2,191.3,345.3"/>
<path fill-rule="evenodd" clip-rule="evenodd" fill="#3E3E3E" d="M311.4,287l3.2-3.6l24.1-27.8l24.4,0.2l28,31.3l30.3-12.3l-0.3-4.9
	l-2.6-36.7l17.4-17.2l41.9,2.3l12.7-30.1l-3.7-3.2l-27.8-24.1l0.2-24.4l31.3-28l-12.3-30.3l-4.8,0.3l-36.7,2.6l-17.1-17.4l2.3-41.9
	L403.5,14L364,82.3c4.6,0.9,9.1,2.2,13.6,4.1c34.1,14.4,50,53.6,35.6,87.7c-14.4,34.1-53.6,50.1-87.7,35.7
	c-9.9-4.2-18.1-10.4-24.7-18l-21.2,36.7l3.9,4l-2.3,42L311.4,287z"/>
<path fill-rule="evenodd" clip-rule="evenodd" fill="#3E3E3E" d="M168.2,489l1.5-4.6l11.5-35l22.5-9.3l38,18l23.2-23.1l-2.2-4.3
	L246,397.7l9.4-22.5l39.6-14.1l0-32.7l-4.6-1.5l-35-11.4l-9.3-22.6l16.1-33.9l-44.6,77.2c0.4,3,0.7,6.1,0.7,9.2
	c0,28.1-17.3,52.1-41.8,62l-43.3,75l2.4,6.7H168.2z"/>
</svg>
